<?xml version="1.0" encoding="utf-8"?><!-- Uploaded to: SVG Repo, www.svgrepo.com, Generator: SVG Repo Mixer Tools -->
<svg fill="#000000" width="800px" height="800px" viewBox="0 0 24 24" id="rainbow-3" data-name="Flat Color" xmlns="http://www.w3.org/2000/svg" class="icon flat-color"><path id="secondary" d="M6,21A15,15,0,0,1,21,6a1,1,0,0,1,0,2A13,13,0,0,0,8,21a1,1,0,0,1-2,0Zm9,1a1,1,0,0,0,1-1,5,5,0,0,1,5-5,1,1,0,0,0,0-2,7,7,0,0,0-7,7A1,1,0,0,0,15,22Z" style="fill: rgb(44, 169, 188);"></path><path id="primary" d="M2,21A19,19,0,0,1,21,2a1,1,0,0,1,0,2A17,17,0,0,0,4,21a1,1,0,0,1-2,0Zm9,1a1,1,0,0,0,1-1,9,9,0,0,1,9-9,1,1,0,0,0,0-2A11,11,0,0,0,10,21,1,1,0,0,0,11,22Z" style="fill: rgb(0, 0, 0);"></path></svg>